{"title":"Sanctuary S03E10 AVC MKV (ENG+NL SUBS) RHoek","uid":6057317,"size":1173778470,"categoryP":"video","categoryS":"tv_shows","magnet":"?xt=urn:btih:2592be9f8743032064e902f388e8ee9bed8252a2&amp;dn=Sanctuary+S03E10+AVC+MKV+%28ENG%2BNL+SUBS%29+RHoek&amp;tr=udp%3A%2F%2Ftracker.openbittorrent.com%3A80&amp;tr=udp%3A%2F%2Fopen.demonii.com%3A1337&amp;tr=udp%3A%2F%2Ftracker.coppersurfer.tk%3A6969&amp;tr=udp%3A%2F%2Fexodus.desync.com%3A6969","seeders":1,"leechers":0,"uploader":"RHoek-2lions","files":-1,"time":1292961534,"description":"Dit is de laatste up van mij voor Sanctuary. Zoals ik al eerder vermeld heb, stop ik ermee omdat ik toe ben aan wat anders. Wel wil ik  vermelden dat ik voor mijn series ik een vervanger heb gevonden. Het is Hornigold. Gebruik dan ook de tag 'Hornigold' als je zoekt naar de series Ghost Whisperer, Fringe, Lost Girl, Sanctuary en Supernatural. Hij zal jullie dezelfde kwaliteit -zo niet beter- geven die jullie gewend zijn. Rest mij nog jullie het beste te wensen en veel plezier. Het ga jullie goed!\n~~~~~~~~~~~~~~~~~~~~~~~~~~~~~~~~~~~~~~~~~~~~~~~~~~~~~~~~~\n\nFOR ENGLISH, PLEASE SCROLL DOWN!\n~~~~~~~~~~~~~~~~~~~~~~~~~~~~~~~~~~~~~~~~~~~~~~~~~~~~~~~~~\nVERHAALLIJN:\nÃ‚Â¯Ã‚Â¯Ã‚Â¯Ã‚Â¯Ã‚Â¯Ã‚Â¯Ã‚Â¯Ã‚Â¯Ã‚Â¯Ã‚Â¯Ã‚Â¯Ã‚Â¯\n\nDe serie gaat over de 157 jaar oude dokter Helen Magnus, een van de eerste vrouwelijke doktoren in de Royal College in de tijd van Victoriaans Engeland. Helen was verloofd met de seriemoordenaar Jack the Ripper en had samen met hem een dochter genaamd Ashley. Ashley weet echter niet dat Jack the Ripper haar vader is. Doktor Magnus' vader startte een vrijplaats (sanctuary) voor bovennatuurlijke wezens, verzameld van plekken over de gehele wereld. In haar werk met deze wezens verwierf de dokter haar grote ouderdom.\n\n~~~~~~~~~~~~~~~~~~~~~~~~~~~~~~~~~~~~~~~~~~~~~~~~~~~~~~~~~\nOndertitelingen: Engels door onbekend &amp; Nederlands door r3po van bierdopje. Top werk weer!\nMenu: Nee.\nCovers: Nee.\nGenre : Mysterie\n\nIMDb: http://www.imdb.com/title/tt0965394/\nOfficiÃƒÂ«le website: http://www.sanctuaryforall.com\n\n~~~~~~~~~~~~~~~~~~~~~~~~~~~~~~~~~~~~~~~~~~~~~~~~~~~~~~~~~\nPLOT:\nÃ‚Â¯Ã‚Â¯Ã‚Â¯Ã‚Â¯Ã‚Â¯\nStem cells, gene therapy, transplants, cloning; The very meaning of the word &quot;humanity&quot; changes daily in the modern world. But there is a darker side to the evolution of mankind, a truth only a few brave souls are willing to face: There are monsters loose in the world. And they are the key to the future of our race. \n\n~~~~~~~~~~~~~~~~~~~~~~~~~~~~~~~~~~~~~~~~~~~~~~~~~~~~~~~~~\nSubtitles: English and Dutch - custom\nMenu: No\nCovers: No.\nGenre : Mystery\n\nIMDb: http://www.imdb.com/title/tt0965394/\nOfficial website: http://www.sanctuaryforall.com\n\n~~~~~~~~~~~~~~~~~~~~~~~~~~~~~~~~~~~~~~~~~~~~~~~~~~~~~~~~~\nVIDEO AND AUDIO INFORMATION\nÃ‚Â¯Ã‚Â¯Ã‚Â¯Ã‚Â¯Ã‚Â¯Ã‚Â¯Ã‚Â¯Ã‚Â¯Ã‚Â¯Ã‚Â¯Ã‚Â¯Ã‚Â¯Ã‚Â¯Ã‚Â¯Ã‚Â¯Ã‚Â¯Ã‚Â¯Ã‚Â¯Ã‚Â¯Ã‚Â¯Ã‚Â¯Ã‚Â¯Ã‚Â¯Ã‚Â¯Ã‚Â¯Ã‚Â¯Ã‚Â¯Ã‚Â¯Ã‚Â¯Ã‚Â¯\nVideo\nID                               : 2\nFormat                           : AVC\nFormat/Info                      : Advanced Video Codec\nFormat profile                   : &lt;a class=&quot;__cf_email__&quot; href=&quot;/cdn-cgi/l/email-protection&quot; data-cfemail=&quot;d79fbeb0bf979be4f9e6&quot;&gt;[email&amp;#160;protected]&lt;/a&gt;&lt;script cf-hash='f9e31' type=&quot;text/javascript&quot;&gt;\n/* &lt;![CDATA[ */!function(){try{var t=&quot;currentScript&quot;in document?document.currentScript:function(){for(var t=document.getElementsByTagName(&quot;script&quot;),e=t.length;e--;)if(t[e].getAttribute(&quot;cf-hash&quot;))return t[e]}();if(t&amp;&amp;t.previousSibling){var e,r,n,i,c=t.previousSibling,a=c.getAttribute(&quot;data-cfemail&quot;);if(a){for(e=&quot;&quot;,r=parseInt(a.substr(0,2),16),n=2;a.length-n;n+=2)i=parseInt(a.substr(n,2),16)^r,e+=String.fromCharCode(i);e=document.createTextNode(e),c.parentNode.replaceChild(e,c)}}}catch(u){}}();/* ]]&gt; */&lt;/script&gt;\nFormat settings, CABAC           : Yes\nFormat settings, ReFrames        : 5 frames\nMuxing mode                      : Container profile=&lt;a class=&quot;__cf_email__&quot; href=&quot;/cdn-cgi/l/email-protection&quot; data-cfemail=&quot;5f0a3134313028311f6c716e&quot;&gt;[email&amp;#160;protected]&lt;/a&gt;&lt;script cf-hash='f9e31' type=&quot;text/javascript&quot;&gt;\n/* &lt;![CDATA[ */!function(){try{var t=&quot;currentScript&quot;in document?document.currentScript:function(){for(var t=document.getElementsByTagName(&quot;script&quot;),e=t.length;e--;)if(t[e].getAttribute(&quot;cf-hash&quot;))return t[e]}();if(t&amp;&amp;t.previousSibling){var e,r,n,i,c=t.previousSibling,a=c.getAttribute(&quot;data-cfemail&quot;);if(a){for(e=&quot;&quot;,r=parseInt(a.substr(0,2),16),n=2;a.length-n;n+=2)i=parseInt(a.substr(n,2),16)^r,e+=String.fromCharCode(i);e=document.createTextNode(e),c.parentNode.replaceChild(e,c)}}}catch(u){}}();/* ]]&gt; */&lt;/script&gt;\nCodec ID                         : V_MPEG4/ISO/AVC\nDuration                         : 43mn 1s\nBit rate                         : 3 250 Kbps\nWidth                            : 1 280 pixels\nHeight                           : 720 pixels\nDisplay aspect ratio             : 16:9\nFrame rate                       : 23.976 fps\nColor space                      : YUV\nChroma subsampling               : 4:2:0\nBit depth                        : 8 bits\nScan type                        : Progressive\nBits/(Pixel*Frame)               : 0.147\nStream size                      : 979 MiB (87%)\nWriting library                  : x264 core 85 r1442tw\nEncoding settings                : cabac=1 / ref=5 / deblock=1:0:0 / analyse=0x3:0x113 / me=umh / subme=8 / psy=1 / psy_rd=1.00:0.00 / mixed_ref=1 / me_range=16 / chroma_me=1 / trellis=1 / 8x8dct=1 / cqm=0 / deadzone=21,11 / fast_pskip=1 / chroma_qp_offset=-2 / threads=12 / sliced_threads=0 / nr=0 / decimate=1 / mbaff=0 / constrained_intra=0 / bframes=3 / b_pyramid=2 / b_adapt=2 / b_bias=0 / direct=3 / wpredb=1 / wpredp=2 / keyint=240 / keyint_min=24 / scenecut=40 / intra_refresh=0 / rc_lookahead=50 / rc=2pass / mbtree=1 / bitrate=3250 / ratetol=1.0 / qcomp=0.60 / qpmin=10 / qpmax=51 / qpstep=4 / cplxblur=20.0 / qblur=0.5 / ip_ratio=1.40 / aq=1:1.00\nLanguage                         : English\n\nAudio\nID                               : 1\nFormat                           : AC-3\nFormat/Info                      : Audio Coding 3\nMode extension                   : CM (complete main)\nCodec ID                         : A_AC3\nDuration                         : 43mn 1s\nBit rate mode                    : Constant\nBit rate                         : 384 Kbps\nChannel(s)                       : 6 channels\nChannel positions                : Front: L C R, Side: L R, LFE\nSampling rate                    : 48.0 KHz\nBit depth                        : 16 bits\nStream size                      : 118 MiB (11%)\n\n*********************************\nBrought to you by Ren HÃƒÂ¶ek\n*********************************","torrent":{"xt":"urn:btih:2592be9f8743032064e902f388e8ee9bed8252a2","amp;dn":"Sanctuary+S03E10+AVC+MKV+%28ENG%2BNL+SUBS%29+RHoek","amp;tr":["udp%3A%2F%2Ftracker.openbittorrent.com%3A80","udp%3A%2F%2Fopen.demonii.com%3A1337","udp%3A%2F%2Ftracker.coppersurfer.tk%3A6969","udp%3A%2F%2Fexodus.desync.com%3A6969"],"infoHash":"2592be9f8743032064e902f388e8ee9bed8252a2","infoHashBuffer":{"type":"Buffer","data":[37,146,190,159,135,67,3,32,100,233,2,243,136,232,238,155,237,130,82,162]},"announce":[],"urlList":[]}}